<mxfile host="app.diagrams.net" modified="2023-10-01T01:42:35.858Z" agent="Mozilla/5.0 (Windows NT 10.0; Win64; x64) AppleWebKit/537.36 (KHTML, like Gecko) Chrome/117.0.0.0 Safari/537.36" etag="WX0Icr4zpXo86DTdyGv0" version="21.8.2" type="github">
  <diagram name="第 1 页" id="fUZwLxiJrdRn_fINZKKO">
    <mxGraphModel dx="1050" dy="581" grid="0" gridSize="10" guides="1" tooltips="1" connect="1" arrows="1" fold="1" page="0" pageScale="1" pageWidth="827" pageHeight="1169" math="0" shadow="0">
      <root>
        <mxCell id="0" />
        <mxCell id="1" parent="0" />
        <mxCell id="VgVcVVtPJcum4-FEcBbq-3" value="" style="edgeStyle=orthogonalEdgeStyle;rounded=0;orthogonalLoop=1;jettySize=auto;html=1;entryX=0;entryY=0.5;entryDx=0;entryDy=0;" edge="1" parent="1" source="VgVcVVtPJcum4-FEcBbq-1" target="VgVcVVtPJcum4-FEcBbq-2">
          <mxGeometry relative="1" as="geometry" />
        </mxCell>
        <mxCell id="VgVcVVtPJcum4-FEcBbq-5" value="" style="edgeStyle=orthogonalEdgeStyle;rounded=0;orthogonalLoop=1;jettySize=auto;html=1;entryX=0;entryY=0.5;entryDx=0;entryDy=0;" edge="1" parent="1" source="VgVcVVtPJcum4-FEcBbq-1" target="VgVcVVtPJcum4-FEcBbq-4">
          <mxGeometry relative="1" as="geometry" />
        </mxCell>
        <mxCell id="VgVcVVtPJcum4-FEcBbq-1" value="端口扫描" style="rounded=1;whiteSpace=wrap;html=1;" vertex="1" parent="1">
          <mxGeometry x="120" y="206" width="120" height="60" as="geometry" />
        </mxCell>
        <mxCell id="VgVcVVtPJcum4-FEcBbq-7" value="" style="edgeStyle=orthogonalEdgeStyle;rounded=0;orthogonalLoop=1;jettySize=auto;html=1;" edge="1" parent="1" source="VgVcVVtPJcum4-FEcBbq-2" target="VgVcVVtPJcum4-FEcBbq-6">
          <mxGeometry relative="1" as="geometry" />
        </mxCell>
        <mxCell id="VgVcVVtPJcum4-FEcBbq-2" value="10000" style="whiteSpace=wrap;html=1;rounded=1;" vertex="1" parent="1">
          <mxGeometry x="319" y="301" width="120" height="60" as="geometry" />
        </mxCell>
        <mxCell id="VgVcVVtPJcum4-FEcBbq-4" value="22" style="whiteSpace=wrap;html=1;rounded=1;" vertex="1" parent="1">
          <mxGeometry x="319" y="112" width="120" height="60" as="geometry" />
        </mxCell>
        <mxCell id="VgVcVVtPJcum4-FEcBbq-9" value="" style="edgeStyle=orthogonalEdgeStyle;rounded=0;orthogonalLoop=1;jettySize=auto;html=1;" edge="1" parent="1" source="VgVcVVtPJcum4-FEcBbq-6" target="VgVcVVtPJcum4-FEcBbq-8">
          <mxGeometry relative="1" as="geometry" />
        </mxCell>
        <mxCell id="VgVcVVtPJcum4-FEcBbq-6" value="根据报错信息推出服务端代码, 发现存在命令注入漏洞" style="whiteSpace=wrap;html=1;rounded=1;" vertex="1" parent="1">
          <mxGeometry x="519" y="301" width="120" height="60" as="geometry" />
        </mxCell>
        <mxCell id="VgVcVVtPJcum4-FEcBbq-11" value="" style="edgeStyle=orthogonalEdgeStyle;rounded=0;orthogonalLoop=1;jettySize=auto;html=1;" edge="1" parent="1" source="VgVcVVtPJcum4-FEcBbq-8" target="VgVcVVtPJcum4-FEcBbq-10">
          <mxGeometry relative="1" as="geometry" />
        </mxCell>
        <mxCell id="VgVcVVtPJcum4-FEcBbq-8" value="获取到用户的 shell" style="whiteSpace=wrap;html=1;rounded=1;" vertex="1" parent="1">
          <mxGeometry x="519" y="110" width="120" height="60" as="geometry" />
        </mxCell>
        <mxCell id="VgVcVVtPJcum4-FEcBbq-10" value="发现存在定时任务, 且脚本置于用于家目录下, 利用重命名操作完成提权" style="whiteSpace=wrap;html=1;rounded=1;" vertex="1" parent="1">
          <mxGeometry x="719" y="110" width="120" height="60" as="geometry" />
        </mxCell>
      </root>
    </mxGraphModel>
  </diagram>
</mxfile>
